<svg xmlns="http://www.w3.org/2000/svg" xmlns:xlink="http://www.w3.org/1999/xlink" viewBox="0 0 108.65 153.97"><defs><style>.cls-1{fill:#0b1213;}.cls-2{fill:url(#linear-gradient);}.cls-3{fill:url(#radial-gradient);}.cls-4{fill:#dd0613;}.cls-5{fill:#fff;}.cls-6{fill:#312780;}.cls-7{fill:url(#linear-gradient-2);}.cls-8{fill:#ebb44e;}.cls-9{fill:#ebc092;}.cls-10{fill:#eec200;}.cls-11{fill:url(#linear-gradient-3);}.cls-12{fill:url(#linear-gradient-4);}.cls-13{fill:url(#linear-gradient-5);}.cls-14{fill:#ffe700;}.cls-15{fill:url(#linear-gradient-6);}.cls-16{fill:url(#linear-gradient-7);}.cls-17,.cls-18{opacity:0.85;}.cls-18{fill:#f0f0f0;}.cls-19{fill:url(#radial-gradient-2);}.cls-20{fill:url(#radial-gradient-3);}.cls-21{fill:url(#radial-gradient-4);}.cls-22{fill:url(#radial-gradient-5);}</style><linearGradient id="linear-gradient" x1="54.33" y1="43.09" x2="54.33" y2="148.23" gradientTransform="translate(144.31 32.31) rotate(84.36)" gradientUnits="userSpaceOnUse"><stop offset="0" stop-color="#ffe700"/><stop offset="1" stop-color="#ef9600"/></linearGradient><radialGradient id="radial-gradient" cx="54.04" cy="95.06" r="40.75" gradientUnits="userSpaceOnUse"><stop offset="0" stop-color="#eec200"/><stop offset="1" stop-color="#fff"/></radialGradient><linearGradient id="linear-gradient-2" x1="53.92" y1="118.82" x2="53.92" y2="146.82" gradientUnits="userSpaceOnUse"><stop offset="0" stop-color="#ffe700"/><stop offset="1" stop-color="#c56e33"/></linearGradient><linearGradient id="linear-gradient-3" x1="40.13" y1="51.13" x2="40.13" y2="71.15" gradientTransform="matrix(1, 0, 0, 1, 0, 0)" xlink:href="#linear-gradient"/><linearGradient id="linear-gradient-4" x1="47.13" y1="51.13" x2="47.13" y2="71.15" gradientTransform="matrix(1, 0, 0, 1, 0, 0)" xlink:href="#linear-gradient"/><linearGradient id="linear-gradient-5" x1="61.82" y1="51.13" x2="61.82" y2="71.15" gradientTransform="matrix(1, 0, 0, 1, 0, 0)" xlink:href="#linear-gradient"/><linearGradient id="linear-gradient-6" x1="54.36" y1="70.82" x2="54.36" y2="66.48" gradientUnits="userSpaceOnUse"><stop offset="0" stop-color="#ffe700"/><stop offset="1" stop-color="#fff"/></linearGradient><linearGradient id="linear-gradient-7" x1="68.86" y1="51.13" x2="68.86" y2="71.15" gradientTransform="matrix(1, 0, 0, 1, 0, 0)" xlink:href="#linear-gradient"/><radialGradient id="radial-gradient-2" cx="55.3" cy="93.73" r="2.69" gradientTransform="translate(0 46.86) scale(1 0.5)" gradientUnits="userSpaceOnUse"><stop offset="0" stop-color="#fff"/><stop offset="1" stop-color="#edc59c"/></radialGradient><radialGradient id="radial-gradient-3" cx="37.35" cy="97.01" r="1.82" gradientTransform="translate(0 38.81) scale(1 0.6)" xlink:href="#radial-gradient-2"/><radialGradient id="radial-gradient-4" cx="69.87" cy="96.72" r="1.82" gradientTransform="translate(0 38.69) scale(1 0.6)" xlink:href="#radial-gradient-2"/><radialGradient id="radial-gradient-5" cx="53.01" cy="134.69" r="3.33" gradientTransform="translate(0 79.46) scale(1 0.41)" gradientUnits="userSpaceOnUse"><stop offset="0" stop-color="#fff"/><stop offset="1" stop-color="#ebb44e"/></radialGradient></defs><g id="Capa_2" data-name="Capa 2"><g id="Capa_1-2" data-name="Capa 1"><path class="cls-1" d="M101.1,68.15a2.19,2.19,0,0,0,1.12-1.72c0-1.1.42-36.54.42-36.54A1.67,1.67,0,0,0,101.53,28S96.65,26.86,94,20.48c0,0-.91-4.38-6.55-6.7s-8.86-2.63-13.88-2.92c0,0-.69-10.86-19.28-10.86h0C35.74,0,35,10.86,35,10.86c-5,.29-8.24.6-13.88,2.92s-6.55,6.7-6.55,6.7C12,26.86,7.12,28,7.12,28A1.67,1.67,0,0,0,6,29.89s.42,35.44.42,36.54a2.19,2.19,0,0,0,1.12,1.72,54.33,54.33,0,1,0,101.1,27.64A54,54,0,0,0,101.1,68.15Z"/><circle class="cls-2" cx="54.33" cy="95.79" r="52.7" transform="translate(-46.34 140.43) rotate(-84.36)"/><path class="cls-3" d="M94.75,95.06A40.71,40.71,0,1,1,54,54.27,40.75,40.75,0,0,1,94.75,95.06Z"/><path class="cls-1" d="M13.22,101.41a72.57,72.57,0,0,1-.15-7.67C13.21,89.46,13,82.21,18,74.56A38.9,38.9,0,0,1,54.11,56.12s10.94-.69,23,6.84c0,0-.09-.6.57,0s1.76,1.46,2.76,2.41,8.32,8.24,10.78,18a43.26,43.26,0,0,1,0,23S88.11,121,78.35,128s-17.48,7.34-23.11,7.54-23.36-5.63-34.1-22.09c0,0-5.09-5.77-4.78-21.18.23-11.35,8-21.54,8-21.54s-11.61,9.61-10,30.37c0,0-.28,15.62,16.5,28.29,0,0,13.09,8,24.62,8.57,0,0,30,1.24,38.54-31.14,0,0,7.29-24.38-11.86-42.78a10.59,10.59,0,0,1,2.55,1.33S73.8,53.65,54.59,53.65s-29.87,7.28-37,17.84-6.46,20.86-6,21.24L12,89.94S11.87,97.1,13.22,101.41Z"/><path class="cls-1" d="M99.26,101.94c-.29-.85-1.14-.5-2.26-.76s-.75-4.28-5.27-5.68c0,0,2.2-1.36,2.12-5.61s-.2-4.78,1-5.91.66-3-.81-2.89-2.62,1.37-3.52,3.28a4.76,4.76,0,0,1-1.65,1.24c-1.08.52-4.12.71-5.9,7.46a5.73,5.73,0,0,0-2.24-.51,13.32,13.32,0,0,0-.33-3.25,3,3,0,0,0-4.32-2.39s-.28-2.52-.41-5.32a26.14,26.14,0,0,0-.49-4.38c.95-.64,2.52-2.06,2.52-3.42a2.55,2.55,0,0,0-1.31-2A48.47,48.47,0,0,0,74.28,63a11.21,11.21,0,0,0-4.81-6.37c-1.12-1.79-4.38-3.28-4.38-3.28a4.67,4.67,0,0,0-2.66-2.65c-.89-.21-2.71-.49-2.71-.49a2.2,2.2,0,0,0-1.91-1.68,2.32,2.32,0,0,0-2.27,1,2.54,2.54,0,0,0-2.13,0,2.32,2.32,0,0,0-1.76-1.1,2.41,2.41,0,0,0-2.42,1.77l-2.3.4c-2.06.35-3.07,2.74-3.07,2.74a6.64,6.64,0,0,0-3.74,2.87c-6.5,2.78-7.56,15.58-7.56,15.58-3.39,2.4,1.06,5.36,1.06,5.36-2.2,2.6-1.4,7.53-1.4,7.53-.75-.06-2.82,0-3.56,4.36s1.21,5.07,1.21,5.07l-.51,1.72c-4.72,2.15-7.57,5.28-11.71,9.58s-3.78,7.35-3.78,7.35c-.51,8.49,3.13,13.7,3.13,13.7l.56,1.3c-2,6.5-.4,9.29.94,9.12a28.4,28.4,0,0,0,3.64-.88,9.07,9.07,0,0,0,7.74,4.3c-.14.72,1.19,1.78,2.26,3.16a3.06,3.06,0,0,0,1.57,1.33c-.15,1.07-.18,4.07,4.11,4.68,0,0,.69,2.47,4.25,2.51,0,0,.92,1.43,4.3.88a4.28,4.28,0,0,0,2.56.25s2.79.71,3.78-.25a4.15,4.15,0,0,0,4.82.63s2.73,1.22,4.57-.88a3.69,3.69,0,0,0,3.69-2.35A4.49,4.49,0,0,0,69.53,148s2.9.15,4-2.16c0,0,.89-1.41.44-2a2.76,2.76,0,0,0,1.36-1.16,29.73,29.73,0,0,1,2-2.45c6.33.18,8.09-3.68,8.09-3.68s3.24,1.95,4.23,1.14c2-1.65,1.44-6.82,1.44-6.82l0-.17A29.32,29.32,0,0,0,95.76,114s-1.73-6-3.45-7.59a6.94,6.94,0,0,0,2.18-2.66,5.92,5.92,0,0,0,2.74.22C98.68,103.69,99.56,102.79,99.26,101.94Z"/><path class="cls-4" d="M8.22,66.38h.42a54.34,54.34,0,0,1,91.37,0h.42c0-1.8.41-35.08.42-36.51,0-.06,0-.13,0-.19-1.16-.35-5.88-2.15-8.49-8.52a1.58,1.58,0,0,1-.09-.31c-.06-.25-1-3.56-5.48-5.41-5.45-2.24-8.46-2.51-13.3-2.79A1.76,1.76,0,0,1,71.83,11c0-.51-1.12-9.19-17.5-9.19S36.87,10.47,36.82,11a1.75,1.75,0,0,1-1.68,1.67c-4.84.28-7.85.55-13.3,2.79-4.53,1.85-5.41,5.16-5.48,5.41a1.58,1.58,0,0,1-.09.31c-2.61,6.37-7.33,8.17-8.49,8.52,0,.06,0,.13,0,.19C7.81,31.3,8.21,64.58,8.22,66.38Z"/><path class="cls-1" d="M93.75,29a2.7,2.7,0,0,0-1.22-1.66,3.89,3.89,0,0,0-1.68-.59c-.69-.08-1.38-.13-2.07-.19h-.13a2.25,2.25,0,0,1,0-.26c0-.61.08-1.21,0-1.82A4.89,4.89,0,0,0,88,22.13a3,3,0,0,0-1.5-1.3,3.18,3.18,0,0,0-1.3-.18l-.71,0a3.21,3.21,0,0,1-1-.12,8.58,8.58,0,0,0-2.14-.2,8.06,8.06,0,0,0-2.77.65,14.28,14.28,0,0,0-2,1l-.17.09-.08-.1a2.84,2.84,0,0,0-.58-.76l-.69-.74.21-.13a10,10,0,0,0,2-1.54,4.71,4.71,0,0,0,1-1.51,1.87,1.87,0,0,0,.11-1.12,1.61,1.61,0,0,0-.86-1.06,3.37,3.37,0,0,0-1.16-.34l-.58-.08-.11,0c0-.12,0-.24,0-.36a2.87,2.87,0,0,0-.22-1.39,1.79,1.79,0,0,0-1.72-1.15,3,3,0,0,1-.84-.1,4.82,4.82,0,0,0-3,.09,8.26,8.26,0,0,0-1.81.84l-.07,0-.48-.35s0-.12,0-.2l-.48-.1A10.54,10.54,0,0,0,66,11.75a5.1,5.1,0,0,0-1.86.28,2.66,2.66,0,0,0-.39.16,1.79,1.79,0,0,1-.85.19c-.54,0-1.07.08-1.61.1a12.73,12.73,0,0,0-2.21.36l-.2.05a.65.65,0,0,1,0-.16c.08-.37.17-.74.25-1.11a2.46,2.46,0,0,0,0-.81,1.16,1.16,0,0,1,0-.32c0-.17.07-.33.11-.52L58,9.59l-.12,0h-.48c-.42.15-.81.38-1.24.51-.2.06-.37.2-.57.27a.54.54,0,0,0-.37.43c-.09.43-.2.85-.32,1.26s-.32,1-.48,1.56l-1.23.22a.14.14,0,0,1-.12,0c-.08-.06-.14-.14-.22-.2a1.66,1.66,0,0,0-1-.36,1.93,1.93,0,0,0-.34,0,4,4,0,0,1-1-.18,4.84,4.84,0,0,0-2.42.09,7.87,7.87,0,0,0-2.13,1,.25.25,0,0,1-.26,0,4.5,4.5,0,0,0-2-.26,1.35,1.35,0,0,0-.83.33.42.42,0,0,1-.19.09,21.08,21.08,0,0,0-3.61,1.24l-.19.08a1.42,1.42,0,0,1,0-.16,2.8,2.8,0,0,0-.57-1.16L38,13.92c-.11-.13-.26-.05-.4-.08A6.55,6.55,0,0,0,36,13.62a5.82,5.82,0,0,0-3.12.85,9.45,9.45,0,0,0-2,1.67.47.47,0,0,1-.1.1,11.32,11.32,0,0,1-.26-1.12h-.26l-.87.06h-.15a3.8,3.8,0,0,0-1,0,1.9,1.9,0,0,1-.67-.09L27.31,15c0,.21-.09.39-.13.59a.25.25,0,0,1-.16.2c-.18.07-.36.15-.55.21a.33.33,0,0,0-.22.21,12.66,12.66,0,0,0-.7,2.16c0,.14-.07.29-.11.45l.74,0c0,.09,0,.18,0,.27h-.1A6,6,0,0,0,25,19a8.19,8.19,0,0,1-1,0c-.39,0-.39,0-.63.26l-.15.2a2.33,2.33,0,0,1-.81.75c-.3.18-.61.35-.92.51-.52.26-1,.51-1.56.78,0,.33-.05.66-.08,1l-.21,2.86c-.06.74-.11,1.48-.16,2.22s-.11,1.6-.17,2.4l-.12,1.79L19,34.3l-.12,1.87c0,.83-.11,1.65-.17,2.48l-.12,1.74c-.06.78-.12,1.56-.17,2.34-.05.56-.08,1.11-.13,1.67,0,.75-.11,1.5-.17,2.25L18,48.26c-.06.74-.11,1.48-.17,2.22s-.11,1.38-.16,2.07-.12,1.45-.17,2.18c0,.1,0,.21,0,.31s-.05.2-.07.3v.22l.19,0,2.29-.73a3.52,3.52,0,0,1,.91-.14,16.32,16.32,0,0,0,1.95-.27,5.07,5.07,0,0,0,2.29-1.06,4,4,0,0,0,1.37-2.38c.17-.85.25-1.71.34-2.57.13-1.18.25-2.36.37-3.55l0-.07.22.09c.94.47,1.9.93,2.84,1.42.68.35,1.34.74,2,1.11a1.86,1.86,0,0,1,.87.9,6.33,6.33,0,0,0,.44.7,1,1,0,0,0,1.17.43c.43-.1.86-.23,1.28-.33l2-.44a.49.49,0,0,1,.17,0,2.11,2.11,0,0,0,1,0h.07q0,.27,0,.57l.63.21c.51.15,1,.34,1.53.44a5,5,0,0,0,4.54-1.34,7.32,7.32,0,0,0,1.72-2.63l.08-.21.14.05c1.51.72,3,1.45,4.45,2.31L54,49.09a.33.33,0,0,0,.29,0l1.21-.32.75-.15a6.44,6.44,0,0,0,1.4-.54l1.54-.79a.27.27,0,0,0,.18-.23c.05-.35.12-.69.19-1.06l.25,0a10.7,10.7,0,0,0,3.25-.81,19.76,19.76,0,0,0,4.08-2.31,21.65,21.65,0,0,0,2.59-2.18,19.65,19.65,0,0,0,1.36-1.52l.13-.15a3.76,3.76,0,0,0,.12.55.42.42,0,0,1-.13.53,3.22,3.22,0,0,0-.33.39l.15.14,1.19,1.09a4.91,4.91,0,0,0,2.6,1.2,8.34,8.34,0,0,0,2.73-.09A21,21,0,0,0,83.1,41a27,27,0,0,0,6-3.94,20.76,20.76,0,0,0,3.07-3.28,9.55,9.55,0,0,0,1.47-2.94c0-.17.07-.35.11-.52l0-.12V29.3ZM38.94,19.39a5.18,5.18,0,0,1,1.4-.86h.09A7.1,7.1,0,0,1,38.71,20l-.13-.13A1.34,1.34,0,0,1,38.94,19.39Zm-6.38.54a4.93,4.93,0,0,1,.22-.53,8.4,8.4,0,0,1,1.38-1.82l.11-.1a.45.45,0,0,1,0,.13A5.64,5.64,0,0,1,33,20l-.23.2a2,2,0,0,1-.19.07A.34.34,0,0,1,32.56,19.93Zm2,17.72c0,.53-.09,1.06-.13,1.6h0l-.07,0-2-1.44,0-.06c.79-.57,1.59-1.13,2.45-1.69C34.66,36.58,34.59,37.12,34.54,37.65ZM42.43,24.3l-.1,0a2.14,2.14,0,0,0-.95-.25c-.22,0-.43,0-.64,0s-.36,0-.54,0a4.88,4.88,0,0,0-2.08.52c-.48.23-1,.44-1.46.65a.37.37,0,0,0-.22.22c-.16.41-.34.81-.49,1.23a5.9,5.9,0,0,0-.17.6,4.34,4.34,0,0,0-.16.62.43.43,0,0,1-.34.41,30.06,30.06,0,0,0-3.18,1.4c-1.58.79-3.14,1.61-4.71,2.41l-.19.09c0-.22,0-.41.06-.6,0-.5.12-1,.17-1.5a.33.33,0,0,1,.19-.3c.28-.15.55-.32.83-.48a.6.6,0,0,1,.19-.06l1-.07c0-.06,0-.12.05-.17s.1-.21.23-.24a.87.87,0,0,0,.37-.14.83.83,0,0,0,.18-.35,5,5,0,0,0,.4-1.47c.06-.56.1-1.12.15-1.68A.22.22,0,0,0,31,25c0-.11,0-.15.15-.18.43-.13.86-.26,1.29-.41a7.83,7.83,0,0,0,2.07-1l.09-.05a2.4,2.4,0,0,0,.27.28,2.93,2.93,0,0,0,2.18.8,5.79,5.79,0,0,0,2.2-.54A10.73,10.73,0,0,0,41.8,22.2L42,22l0,0c-.08.34-.15.68-.23,1l.49.05.24,0a3.47,3.47,0,0,1,.77.14c.37.09.74.14,1.12.21l.07,0A6.91,6.91,0,0,0,42.43,24.3Zm21.73-8.61a1.82,1.82,0,0,1,0,.66l-.56-.08A.92.92,0,0,1,64.16,15.69Zm-6.82,2.5c0-.09,0-.18.07-.28l.3-.05c0-.35,0-.71,0-1.06l1-.27-.06.13-.4.79a.57.57,0,0,1-.12.18l-.75.58-.07,0A.18.18,0,0,1,57.34,18.19Zm7.77,15c0,.35-.09.7-.14,1.06a1.09,1.09,0,0,1-.07.24l-1,2.63a1.64,1.64,0,0,1-.16.29,4.57,4.57,0,0,1-.86,1,2,2,0,0,1-1.19.48,3.82,3.82,0,0,1-1.12-.07.71.71,0,0,1-.46-.27,2.31,2.31,0,0,1-.44-1A5.41,5.41,0,0,1,59.62,36a10.91,10.91,0,0,1,.69-3.18A5.92,5.92,0,0,1,61,31.52a.3.3,0,0,1,.35-.14c.22.05.45.09.67.12a.63.63,0,0,1,.3.13l1.1.89.15.11a9.36,9.36,0,0,1,.8-.75c.2.16.38.29.55.44a.29.29,0,0,1,.1.16A1.61,1.61,0,0,1,65.11,33.17Zm3.81-8.29-.14-.07A8.22,8.22,0,0,0,66,24a7.66,7.66,0,0,0-2,.07l-1.45.24c-.12,0-.2.05-.2.19s-.07.11-.15.12a10.07,10.07,0,0,0-1.69.54,13.84,13.84,0,0,0-3.3,2,18.14,18.14,0,0,0-3.37,3.52.62.62,0,0,1-.28.22c-1.8.82-3.56,1.73-5.3,2.66L48,33.7c.42-3.4.86-6.77,1.12-10.17l0-.1a9.82,9.82,0,0,0,1.06-.3A14.07,14.07,0,0,0,52.83,22a5,5,0,0,0,.3.45,2.27,2.27,0,0,0,2.55.78,9.26,9.26,0,0,0,1.61-.71c.46-.24.9-.5,1.38-.77,0,0,0,.07.07.1a1.17,1.17,0,0,0,.45.31c.37.14.73.3,1.1.43a4.94,4.94,0,0,0,2,.24,17.13,17.13,0,0,0,3.62-.61c.38-.11.76-.27,1.16-.42a3,3,0,0,0,1,.41,4.28,4.28,0,0,0,1.29.1c.39,0,.78-.08,1.17-.12h.16C70,23.07,69.48,24,68.92,24.88Zm5.8,7a2.14,2.14,0,0,0-.06.27.34.34,0,0,1-.09.15l-.73.6a.06.06,0,0,1,0,0c0-.6,0-1.19-.05-1.78l1.21.57A1.06,1.06,0,0,0,74.72,31.88Zm5.6,3.2c.18-.2.36-.37.52-.56s.47-.5.7-.76a3.54,3.54,0,0,0,.54-.93c.75.06,1.48.1,2.21.23A13.26,13.26,0,0,1,80.32,35.08Z"/><path class="cls-5" d="M67.78,18.87a2.91,2.91,0,0,0,.59-.91.28.28,0,0,1,.11-.13l.37-.2c.08,0,.17,0,.18-.16s.06,0,.09-.06L70.38,17a1.2,1.2,0,0,1,.65,0c.17,0,.21.11.12.24a1.3,1.3,0,0,1-.26.31l-.72.6a4.11,4.11,0,0,0-.29.3,1.1,1.1,0,0,0-.27.6.41.41,0,0,0,.34.49,1.9,1.9,0,0,0,.71,0,9,9,0,0,0,3-.91,4.93,4.93,0,0,0,.54-.34,1.1,1.1,0,0,0,.39-.41.36.36,0,0,0-.14-.54,2.43,2.43,0,0,0-.46-.22,7.62,7.62,0,0,0-1.43-.33l-2.11-.29A9.76,9.76,0,0,1,68.8,16a4.8,4.8,0,0,0-.33-2.22l.19-.15a6.59,6.59,0,0,1,2.48-1,3.48,3.48,0,0,1,1.47.08l1.14.29.12,0,0-.13a.58.58,0,0,1,.56.29,1.23,1.23,0,0,1,.22.64c0,.14,0,.28,0,.43H74.4a.53.53,0,0,0-.5.29.5.5,0,0,1-.33.24c-.12,0-.23.1-.36.14a.78.78,0,0,1-.43.06,1.34,1.34,0,0,0-.45-.84,2.35,2.35,0,0,0-.47-.36.72.72,0,0,0-.67-.07l-.56.18c-.32.13-.35.33-.07.55a2.41,2.41,0,0,0,.48.3,8.41,8.41,0,0,0,2.18.65l3.26.52a2.3,2.3,0,0,1,.53.14.53.53,0,0,1,.34.79A3.46,3.46,0,0,1,76.56,18a9.41,9.41,0,0,1-2.26,1.66A13,13,0,0,1,70.78,21a7.77,7.77,0,0,1-2,.21,2.14,2.14,0,0,1-1.06-.32,4.17,4.17,0,0,0,.73-1.28l.13-.28h-.41c0-.16.05-.3.09-.46l-.47.1Zm-4.14-5.41a5,5,0,0,1,1.76-.58,3.55,3.55,0,0,1,.86,0s.1,0,.12.09.05,0,.08,0,.19,0,.29.06a1.63,1.63,0,0,1,1,.76,2.71,2.71,0,0,1,.37,1.24,5.7,5.7,0,0,1-.32,2.49,2.25,2.25,0,0,1-.45.76,1.66,1.66,0,0,1-.43.3,3.83,3.83,0,0,1-1,.27,2.76,2.76,0,0,0-.55.19.83.83,0,0,1-.32.07,5.2,5.2,0,0,1-1-.07L62.69,19l-.63-.09a1.45,1.45,0,0,0-.05.58.89.89,0,0,0,.59.76,2,2,0,0,0,.58.14,8.32,8.32,0,0,0,3.06-.3l1-.28.13.33a2,2,0,0,1-.25.25,4.72,4.72,0,0,1-1.49.74,14.66,14.66,0,0,1-2.07.44,10.4,10.4,0,0,1-1.77.16,4.17,4.17,0,0,1-1.52-.31c-.19-.08-.37-.17-.56-.23a.4.4,0,0,1-.28-.33.44.44,0,0,0,0-.1.71.71,0,0,1,.14-.1c.62-.42,1.23-.85,1.86-1.26a.6.6,0,0,0,.27-.5,1.09,1.09,0,0,1,.07-.4.8.8,0,0,0,0-.55l-.25-.6a.77.77,0,0,0-.82-.43,1.67,1.67,0,0,0-.3.08.2.2,0,0,1-.2,0l-.29-.12c.16-.21.31-.43.48-.63A10.73,10.73,0,0,1,63.64,13.46Zm-1.33,3.72.09,0,2.5.42h.21c0-.26.1-.5.14-.75a3.84,3.84,0,0,0,0-1.31,1.44,1.44,0,0,0-.31-.74.82.82,0,0,0-.68-.32,1.49,1.49,0,0,0-.74.22,2.66,2.66,0,0,0-1.21,1.82A1.72,1.72,0,0,0,62.31,17.18Zm-9.14-.87c.55-.06,1.06-.2,1.6-.25,0,.23-.05.43-.08.63.14,0,.28.09.41.15a1.28,1.28,0,0,1,.77.74,1.34,1.34,0,0,1-.07,1,4,4,0,0,1-.75,1.17,7.37,7.37,0,0,1-1.22,1.08.21.21,0,0,0-.1.25,2.16,2.16,0,0,0,.15.45,1.15,1.15,0,0,0,1.09.68,1.89,1.89,0,0,0,.66-.17,11.25,11.25,0,0,0,1.6-.78c1.23-.7,2.4-1.49,3.57-2.3.25-.18.27-.11.12-.47l.07,0c.14-.14.15-.17.07-.35l-.17-.41c-.06-.13-.08-.14-.21-.09l-.33.13a.23.23,0,0,1-.24,0,2.64,2.64,0,0,0-.29-.15l-.07.05c-.15.16-.29.33-.45.48a10.06,10.06,0,0,1-2.6,1.84,1.66,1.66,0,0,1-.31.12.26.26,0,0,1-.3-.12.39.39,0,0,1-.08-.2,2,2,0,0,1,0-.55c0-.32.12-.63.19-1s.17-.8.26-1.2a.29.29,0,0,1,.1-.19c.08,0,.08-.1.1-.17,0-.24.09-.47.13-.71s.09-.18.22-.2a6.5,6.5,0,0,0,1.72-.44l.12,0L60,15a1.57,1.57,0,0,0,.74-.37,3.14,3.14,0,0,1,.48-.42.4.4,0,0,0,.16-.24c0-.05-.06-.12-.09-.18s0,0,0,0-.16-.15-.29-.14a6.87,6.87,0,0,0-1.27.21l-1.76.43c-.2.05-.41.08-.63.12,0-.08,0-.12,0-.17.06-.28.13-.56.2-.84.15-.59.32-1.18.46-1.77a2.29,2.29,0,0,0,.06-.58.28.28,0,0,0-.16-.3.51.51,0,0,0-.53,0,1.22,1.22,0,0,1-.28.14L57,11l-.31.15-.24.07a.32.32,0,0,0-.27.28c-.06.34-.14.68-.23,1-.19.64-.41,1.28-.6,1.91,0,.13-.09.2-.23.22l-1.23.21-.68.14A6.18,6.18,0,0,1,53.17,16.31Zm-7.81,5.62a.3.3,0,0,0,0,.1l-.14.1a1.6,1.6,0,0,0,.23.16,2.43,2.43,0,0,0,1.23.32,8.41,8.41,0,0,0,1.66-.16,13.13,13.13,0,0,0,4.06-1.53,9.2,9.2,0,0,0,2-1.55,3.57,3.57,0,0,0,.7-1.05.56.56,0,0,0-.38-.86,3.84,3.84,0,0,0-.46-.11l-3-.48a9.55,9.55,0,0,1-2.17-.59,5.25,5.25,0,0,1-.66-.36.61.61,0,0,1-.2-.19.21.21,0,0,1,.07-.32,1.64,1.64,0,0,1,.3-.14c.13,0,.27-.07.4-.12a.75.75,0,0,1,.64,0,1.8,1.8,0,0,1,1,1.24,1.36,1.36,0,0,0,.21,0c.21-.06.41-.14.61-.21a.39.39,0,0,0,.28-.22.52.52,0,0,1,.48-.28l.31,0a2.37,2.37,0,0,0,0-.6,1.09,1.09,0,0,0-.34-.62.58.58,0,0,0-.42-.14.68.68,0,0,1,0,.14l-1.27-.32a3.57,3.57,0,0,0-1.3-.1,5.92,5.92,0,0,0-2,.68c-.36.19-.36.19-.54.56,0,0,0,0,0,.05a.33.33,0,0,0,0,.43,1.47,1.47,0,0,1,.1.22l-.1.07c-.15.09-.33.14-.36.35a.16.16,0,0,1-.07.07.21.21,0,0,0-.1.23.47.47,0,0,1,0,.17c-.06.24.08.33.27.42a8.32,8.32,0,0,0,2.12.62c.77.13,1.54.22,2.31.34a5.37,5.37,0,0,1,1.3.32,2.93,2.93,0,0,1,.39.21.31.31,0,0,1,.11.44,1,1,0,0,1-.24.33,4.42,4.42,0,0,1-.67.46,8.52,8.52,0,0,1-3.2.94,1.39,1.39,0,0,1-.67-.06.38.38,0,0,1-.28-.39l0-.2a1.19,1.19,0,0,1,.42-.65c.26-.24.53-.46.79-.69a2,2,0,0,0,.31-.34c.09-.13,0-.2-.12-.24a1.33,1.33,0,0,0-.74.05L47,18.83s-.1.05-.1.09a.18.18,0,0,1-.15.12,3.18,3.18,0,0,0-.64.38.19.19,0,0,0-.09.21c0,.3.07.6.14.9a1,1,0,0,1-.32,1l-.4.35ZM37.73,19c.22-.21.41-.43.64-.62a6.92,6.92,0,0,1,2.5-1.25A4.47,4.47,0,0,1,42.13,17a.4.4,0,0,1,.31.08l-.09.27a.79.79,0,0,0-.06.34.47.47,0,0,1,0,.26,1.63,1.63,0,0,1-.19.34,10,10,0,0,1-1.26,1.5,6.64,6.64,0,0,1-2,1.43.25.25,0,0,1-.31,0L38,20.83a1.69,1.69,0,0,1-.45-.51.88.88,0,0,1-.09-.69l0-.15a12.57,12.57,0,0,1-2.23,2.75,1.56,1.56,0,0,0,.57.74,2.14,2.14,0,0,0,1.3.32,5,5,0,0,0,1.51-.37,9.42,9.42,0,0,0,2.58-1.71,5.07,5.07,0,0,0,.44-.37,11.87,11.87,0,0,1,1.11-1l.21-.15a4.9,4.9,0,0,1,.13.56,3.76,3.76,0,0,1,.05,1.06,2.29,2.29,0,0,0,0,.37c0,.13,0,.26,0,.41l.52.17v0l.21-.16a1.24,1.24,0,0,0,0-.15,1.12,1.12,0,0,0,.54-.21c.28-.21.55-.43.82-.65a.34.34,0,0,0,.1-.35,6.85,6.85,0,0,1-.18-1.75c0-.81,0-1.63,0-2.44a.5.5,0,0,1,.15-.38s.11-.1.11-.16a.25.25,0,0,1,.13-.23l.06-.45L44.94,15a.77.77,0,0,0-.52,0s-.06,0-.09,0a1.1,1.1,0,0,0-.54,0,.24.24,0,0,0-.24.17c0,.08-.08.11-.16.13a14.84,14.84,0,0,0-2.17.6A17.9,17.9,0,0,0,38.56,17a.26.26,0,0,0-.16.19,7.08,7.08,0,0,1-.62,1.72S37.75,19,37.73,19Zm3.83,7a.23.23,0,0,0-.26-.19h-.22a.51.51,0,0,0-.32.08l-.14.09c-.09-.19-.25-.2-.43-.19a3,3,0,0,0-1.14.29l-1,.49a.25.25,0,0,0-.13.14,5.24,5.24,0,0,0-.3.95,2.54,2.54,0,0,1-.1.37,1.67,1.67,0,0,0,0,.94.62.62,0,0,0,.56.46,2.31,2.31,0,0,0,.69-.06A6.7,6.7,0,0,0,41.47,28a.44.44,0,0,0,.16-.44c0-.16-.06-.33-.07-.49s0-.44,0-.66A1.23,1.23,0,0,0,41.56,26.07ZM27,17.66l-.11-.06c.06-.18.13-.35.18-.52a.24.24,0,0,1,.15-.13l.79-.34c.1,0,.06-.15.12-.22s.22,0,.29-.09.07,0,.1,0h1.06c.24.84.32,1.69.48,2.56l.15-.17c.46-.57.92-1.15,1.4-1.7a7.78,7.78,0,0,1,2-1.66,4.66,4.66,0,0,1,2.81-.54l.5.07c.11,0,.21.05.24.18.19-.07.27.05.35.19a2,2,0,0,1,.22.8,4,4,0,0,1-.23,1.57,9.18,9.18,0,0,1-1.39,2.6,10.65,10.65,0,0,1-2.1,2.14,6.39,6.39,0,0,1-1.88,1l-1.56.49a.66.66,0,0,1-.48,0s-.07,0-.13,0c0,.23-.07.44-.09.65-.05.61-.1,1.23-.15,1.83a5.49,5.49,0,0,1-.26,1.28.29.29,0,0,1-.23.21,1.42,1.42,0,0,0-.33.11.29.29,0,0,0-.15.09.35.35,0,0,1-.35.15.83.83,0,0,0-.6.22c-.05,0-.11.06-.17.1s0-.12-.05-.18l-.21,0c0-.15,0-.29,0-.44.07-1.11.14-2.23.2-3.35a19.63,19.63,0,0,0,0-3c0-.51-.11-1-.18-1.53l-.21-1.57c0-.09,0-.18-.05-.27s0-.1,0-.12S27,17.79,27,17.66Zm3.78,4.09a.68.68,0,0,0,1,.7,4.43,4.43,0,0,0,.59-.36,6.76,6.76,0,0,0,1.1-1,7.91,7.91,0,0,0,1.62-2.54,4.45,4.45,0,0,0,.32-1.49c0-.11,0-.27-.07-.43a1,1,0,0,0-.55-.74.42.42,0,0,0-.53,0l-.24.2A10.35,10.35,0,0,0,32,18.51a7.89,7.89,0,0,0-1.14,2.8A2.2,2.2,0,0,0,30.81,21.75Zm6.07,9.54a1.23,1.23,0,0,1,.74-.5.49.49,0,0,0,.3-.23,1.68,1.68,0,0,1-1.3-.81l-.24.08c-.44.17-.89.34-1.32.52-1.89.8-3.71,1.74-5.53,2.7-1.42.75-2.82,1.52-4.23,2.29l-.22.11a.83.83,0,0,1,0-.16c.05-.7.08-1.41.14-2.11.09-1,.2-1.91.31-2.87s.21-1.68.32-2.53.23-1.83.34-2.75.24-2.08.35-3.12a3.05,3.05,0,0,0,0-.52H26.3a.56.56,0,0,0-.52-.48l-.22,0-1,0a.15.15,0,0,0-.11.06,4.68,4.68,0,0,1-1.23.94c-.43.25-.88.47-1.32.69a.24.24,0,0,0-.16.22L21.55,25l-.12,1.65L21.25,29l-.12,1.81c-.06.86-.11,1.71-.17,2.57l-.12,1.85c-.06.81-.12,1.62-.17,2.44s-.11,1.51-.16,2.27l-.18,2.36c0,.74-.11,1.48-.16,2.22S20.06,46,20,46.7l-.12,1.61c-.06.75-.11,1.5-.17,2.25-.05.57-.09,1.14-.13,1.7,0,.23,0,.45,0,.69a3.24,3.24,0,0,1,.39-.07l1.72-.19a5.46,5.46,0,0,0,1.58-.39,2.23,2.23,0,0,0,1.4-1.8c.1-.69.19-1.38.27-2.08s.14-1.25.2-1.88.17-1.57.25-2.35a5.29,5.29,0,0,1,.37-1.57,2.07,2.07,0,0,1,.27-.45l.16.06,1.37.63c1.21.53,2.38,1.13,3.55,1.74.68.35,1.35.72,2,1.1a5.18,5.18,0,0,1,1.29,1c.17-.17.33-.35.49-.52a1.34,1.34,0,0,0,1,.08.25.25,0,0,0,0-.09,22,22,0,0,1-.58-3.79.41.41,0,0,0-.18-.33c-.71-.49-1.42-1-2.12-1.5s-1.39-1-2.08-1.54a6.2,6.2,0,0,1-1.06-1,2,2,0,0,1-.24-.37c-.07-.15,0-.21.1-.32.63-.47,1.26-.94,1.9-1.39,1.41-1,2.88-2,4.38-2.87a.43.43,0,0,0,.21-.27,6.42,6.42,0,0,1,.24-.66A3,3,0,0,1,36.88,31.29Zm3.63,0-.25-.07a3.39,3.39,0,0,0-1.45.1.4.4,0,0,0-.31.28.56.56,0,0,0,0,.12c-.28.07-.28.07-.43.28l-.14-.16a.33.33,0,0,0-.23.2,4.49,4.49,0,0,0-.36.77,14.35,14.35,0,0,0-.38,1.43,36,36,0,0,0-.54,3.71c-.07.79-.12,1.58-.14,2.37a24.21,24.21,0,0,0,.19,3.07,21.38,21.38,0,0,0,.67,3.37,1.21,1.21,0,0,0,0,.14l.8-.14c-.17-.21-.3-.4-.18-.66l.19,0,.13.28a1.31,1.31,0,0,0,.17.24.85.85,0,0,0,.25.21c.14.07.22,0,.27-.13s.06-.15.19-.15a1.33,1.33,0,0,1,.28,0c.13,0,.27.07.4.1s.11-.09.17-.1a.27.27,0,0,0,.23-.27,3.45,3.45,0,0,0,.05-.64c0-.93-.06-1.86-.08-2.79s0-1.67,0-2.5a11.46,11.46,0,0,1,.06-1.17c.11-.88.23-1.76.35-2.64.19-1.35.39-2.69.58-4a1.54,1.54,0,0,0,0-.74A.72.72,0,0,0,40.51,31.28ZM57.69,45.1l-.18-.05a7.06,7.06,0,0,1-4.66-3.5.7.7,0,0,0-.18-.2c-.37-.28-.75-.55-1.12-.84a7.9,7.9,0,0,1-1.27-1.11A1.51,1.51,0,0,1,50,39c-.09-.16-.07-.22.09-.33.55-.41,1.1-.83,1.66-1.22A.55.55,0,0,0,52,37a9.89,9.89,0,0,1,.17-1.09,10.25,10.25,0,0,1,.95-2.58l.1-.21c-.37.15-.72.32-1.07.49l-1.06.55L50,34.73l-1,.56c-.35.18-.7.36-1,.55l-1.05.57c-.34.18-.67.39-1,.57,0-.19,0-.34,0-.49,0-.67.1-1.33.16-2s.12-1.15.19-1.73.15-1.28.23-1.92.19-1.53.28-2.3L47,26.32c0-.18,0-.36.05-.55l-.26,0,0-.09a.38.38,0,0,0-.27-.3,1.83,1.83,0,0,0-.32-.07h-.46a5.15,5.15,0,0,0-.68,0,3.93,3.93,0,0,0-1.16.32,2.54,2.54,0,0,0-.88.56,1.22,1.22,0,0,0-.42.94c0,.06,0,.11,0,.17l-.18,2.58-.12,2.15c0,.83-.09,1.66-.14,2.49s-.07,1.37-.12,2c0,.85-.11,1.69-.17,2.53s-.1,1.54-.16,2.31c-.06.93-.13,1.86-.2,2.79s-.15,1.88-.22,2.82c0,.27,0,.53,0,.81l.34.1a3.21,3.21,0,0,0,2.69-.47,4,4,0,0,0,1-1.07,7.08,7.08,0,0,0,1-2.09c.07-.24.14-.49.23-.72a3.78,3.78,0,0,1,.25-.49c.09,0,.17.06.24.1.84.39,1.69.77,2.53,1.18,1.17.56,2.33,1.14,3.46,1.79a6.23,6.23,0,0,1,1.47,1.07l.45-.48a1.39,1.39,0,0,0,1,.06l.28-.1c.4-.18.79-.39,1.2-.55a.51.51,0,0,0,.38-.57A1.89,1.89,0,0,0,57.69,45.1ZM71.92,32.17a7.69,7.69,0,0,1-1.3,4.48,15.79,15.79,0,0,1-2.53,3.06,19.85,19.85,0,0,1-4.4,3.15A11.11,11.11,0,0,1,60.63,44,6.26,6.26,0,0,1,55,42.55a5.8,5.8,0,0,1-1.86-3.5,7.81,7.81,0,0,1,.6-4.42,15.13,15.13,0,0,1,2.45-3.86,14.76,14.76,0,0,1,3.55-3.09,10,10,0,0,1,2.61-1.15,9.81,9.81,0,0,1,1.52-.24h.09c0-.1,0-.19.07-.3.22,0,.44-.08.66-.1a6.1,6.1,0,0,1,5.41,2.31A6.72,6.72,0,0,1,71.45,31c0,.06,0,.12,0,.19l.11-.07.11-.07a.33.33,0,0,1,.13.28C71.88,31.59,71.91,31.88,71.92,32.17Zm-5,.14a2.08,2.08,0,0,0-.9-1.52,1.64,1.64,0,0,1-.58-.67,1.86,1.86,0,0,0-.29-.44.68.68,0,0,0-.5-.24.24.24,0,0,0-.23.11.48.48,0,0,1-.37.28,1.07,1.07,0,0,0-.61.3L63,29.78a.54.54,0,0,1-.14-.16,1.8,1.8,0,0,0-.25-.4.94.94,0,0,0-.94-.35l-.19.05a3.19,3.19,0,0,0-1.45.93,7.28,7.28,0,0,0-1.6,2.72,12.43,12.43,0,0,0-.64,3.07,7.53,7.53,0,0,0,.06,2.12,4.1,4.1,0,0,0,.76,1.81,2.46,2.46,0,0,0,1.29.93,6.06,6.06,0,0,0,.74.15,4.92,4.92,0,0,0,2-.13,4.12,4.12,0,0,0,1.85-1.15,7.63,7.63,0,0,0,1.76-2.84,12.12,12.12,0,0,0,.65-2.72A5.79,5.79,0,0,0,66.93,32.31ZM73.33,26c.22-.36.45-.7.68-1.05l.85-1.4a.37.37,0,0,0,0-.51.33.33,0,0,1-.06-.1,1.31,1.31,0,0,0-.3-.41l-.59-.63a.77.77,0,0,0-.18-.18c-.15-.12-.23-.12-.37,0a1.52,1.52,0,0,0-.22.22,20.9,20.9,0,0,0-1.9,2.77.13.13,0,0,0,0,.1c0,.1,0,.15-.08.21-.13.21-.28.4-.39.62a.73.73,0,0,0,.06.75c.12.18.21.38.32.58a.79.79,0,0,1,.07.43,5.28,5.28,0,0,1,0,.55v.23c0,.19.1.25.27.2a1.72,1.72,0,0,0,.29-.11l.17-.08a1.28,1.28,0,0,0,0,.21,1.23,1.23,0,0,0,0,.2c0,.17.15.22.3.14s.3-.2.27-.42a1.27,1.27,0,0,1,0-.2c0-.29,0-.57,0-.86a2.13,2.13,0,0,1,.34-1.11l.25,0A.33.33,0,0,0,73.33,26Zm18,2.85a2,2,0,0,0-.57-.19c-.6-.07-1.21-.13-1.81-.18s-1.2-.08-1.8-.12c-1.24-.1-2.48-.22-3.71-.4a13.82,13.82,0,0,1-3-.75,5.12,5.12,0,0,1-1.27-.66,1.45,1.45,0,0,1-.37-.41.53.53,0,0,1,.1-.64.72.72,0,0,1,.24-.19c.25-.13.51-.24.77-.36l.33-.16a1.3,1.3,0,0,1,1.28,0,2.25,2.25,0,0,1,.21.12,3.92,3.92,0,0,1,1.3,1.47,1.6,1.6,0,0,1,.21.85,1.46,1.46,0,0,0,.31,0,4.67,4.67,0,0,0,.62-.24c.29-.14.57-.3.86-.45a.31.31,0,0,0,.15-.15l.21-.41a1,1,0,0,1,.73-.53l.65-.12a.69.69,0,0,0,0-.13,5,5,0,0,0-.15-1.44,2,2,0,0,0-.56-1,1,1,0,0,0-.8-.24,3,3,0,0,0,0,.32h-.07L83,22.36a5.73,5.73,0,0,0-3.1.17,12.24,12.24,0,0,0-5,3.27,3.77,3.77,0,0,0-1,1.9,1.58,1.58,0,0,0,.66,1.69,2.77,2.77,0,0,0,.6.35,12.71,12.71,0,0,0,4.06,1c.89.09,1.79.12,2.69.18a26.53,26.53,0,0,1,2.67.27,5.82,5.82,0,0,1,1.54.4,3.05,3.05,0,0,1,.61.34.65.65,0,0,1,.25.7,2.18,2.18,0,0,1-.59,1.1A7.78,7.78,0,0,1,85,34.92a16.32,16.32,0,0,1-3.25,1.66,11.41,11.41,0,0,1-2.7.76,2.44,2.44,0,0,1-1-.06.65.65,0,0,1-.47-.59,2.34,2.34,0,0,1,0-.53A2.7,2.7,0,0,1,78,34.92a10.7,10.7,0,0,1,1-1.21l.88-.93a1.75,1.75,0,0,0,.43-.68c.08-.25,0-.38-.26-.4a2.14,2.14,0,0,0-1.17.16l-1.26.6c-.39.19-.77.4-1.16.6-.1,0-.16.11-.16.21s-.06.15-.14.2a1.81,1.81,0,0,0-.33.2A6.47,6.47,0,0,0,73.4,36.8a4.38,4.38,0,0,0-.33,1.92,1.83,1.83,0,0,0,.64,1.34s0,0,.06.06l-.31.24.16.13a2.92,2.92,0,0,0,1,.51,5.2,5.2,0,0,0,2.15.1,16.57,16.57,0,0,0,2.94-.71,23.58,23.58,0,0,0,4.27-2A23.32,23.32,0,0,0,89.56,34a10.31,10.31,0,0,0,2.21-3.38A4,4,0,0,0,92,30,1,1,0,0,0,91.35,28.83Z"/><path class="cls-6" d="M31.21,108.29c.35.49-.81,5.41-.81,5.41S22.19,115.18,18,126.39c0,0-3.4-5.61-3.23-11.15s1.28-6.8,4.27-9.85,7.8-7.54,10-8.47C29.1,96.92,27.84,103.61,31.21,108.29Z"/><path class="cls-7" d="M35.2,121.63c2.31-.85,2.84-3.77,4.57-3.77s2.46,1.29,2.46,3.21-2.11,3.05-2.11,3.05C37.34,121.41,35.15,121.64,35.2,121.63Zm9.45,6.05c-.8-.42-2.51-.48-4.92-2.62s-3.63-2.38-5-2.6-1.8-2.14-2.3-4.09A12.77,12.77,0,0,0,31,114.51C21.73,117,17.67,128,17.6,132.47s1.31,3.81,2.6,3.12a6.5,6.5,0,0,1,2.54-.72c2.37,5.19,8,4.43,8,4.43-.42.71,1,2,2.06,3.61s3.28.89,4.73-.44,0-2-1.21-3.8-1.07-2.55-1.07-2.55,3.46,3.11,4.94,3.21a3.57,3.57,0,0,0,3.25-2.67c.07-1.07-1.66-2.71-3.75-3.88s-2.44-2.1-2.44-2.1c.47-.05,1.47.66,3,1.53s4.29,2.52,5.94-.09S45.46,128.1,44.65,127.68Zm24.44-4.54A8.13,8.13,0,0,1,73,121.43c1.51-.1,1.56-.56,1.56-.56A7.78,7.78,0,0,1,71.4,118a2.11,2.11,0,0,0-2.46-1c-1.92.54-2.15,3.21-1.5,4.3A7,7,0,0,0,69.09,123.14Zm9.41-8.65a10.06,10.06,0,0,0-1.58,3.14c-.56,1.87-1.11,3.9-2.91,4.5a7.09,7.09,0,0,0-3.81,1.15c-1.55,1.19-3.26,2.57-5.3,3s-3.46,1-3.55,3.08a3.08,3.08,0,0,0,3.42,3.06c1.48-.22,5.4-2.37,6.11-2.29,0,0-.1.54-1.61,1.36s-5.58,2.7-5.06,4.24,1.85,3.16,3.5,2.69a16.5,16.5,0,0,0,4.7-2.71c.18,0,0,1-1.54,2.71s-2.3,2.23-1.38,3.34,3.85,2.45,4.76.91,2.58-2.51,2.37-3.44c0,0,6,1.09,8.31-3.78a16.31,16.31,0,0,1,3,1.17c.94.57,2.12.62,2.29-2.75S89,118.73,78.5,114.49Z"/><path class="cls-8" d="M36.44,144.3s-1.25.4-1.75.54a3.29,3.29,0,0,0,3,3.71s-.66-2.14-.16-3.21C37.55,145.34,36.85,144.37,36.44,144.3Z"/><path class="cls-8" d="M38.09,146.46s1.78-.76,2.2.84A25.6,25.6,0,0,0,41.5,151S38.06,151,38.09,146.46Z"/><path class="cls-8" d="M41.24,147.76a1.88,1.88,0,0,1,2.85.56A12.94,12.94,0,0,0,45.62,152S42,153.31,41.24,147.76Z"/><path class="cls-8" d="M44.94,148.47a1.92,1.92,0,0,1,2.25,1.18,10.11,10.11,0,0,0,2,2.57l-.65.08C48.17,152.36,46.08,153.28,44.94,148.47Z"/><path class="cls-8" d="M47.88,149.36a2.42,2.42,0,0,1,3.17.17,6.44,6.44,0,0,0,1.2,2.59S49.47,153.13,47.88,149.36Z"/><path class="cls-8" d="M51.87,149.62s2.38-.82,3,.41a13.57,13.57,0,0,0,1.88,2.86S53.39,154.37,51.87,149.62Z"/><path class="cls-8" d="M55.72,150.13s1.24-1.78,2.78-.88c0,0,2,1.92,3,2.7A3.9,3.9,0,0,1,59.22,153C58,153,56.66,152.2,55.72,150.13Z"/><path class="cls-8" d="M59.41,149s1.18-1.47,2.62-1c0,0,2.22,1.43,3,1.88a2.73,2.73,0,0,1-2.63,1.83A15.94,15.94,0,0,1,59.41,149Z"/><path class="cls-8" d="M62.61,147.5a2.89,2.89,0,0,1,3.48-1.34,13.86,13.86,0,0,0,2.53,1.73,3.28,3.28,0,0,1-3.07,1.49Z"/><path class="cls-8" d="M66.57,145.61a1.71,1.71,0,0,1,2.5-.87,15.88,15.88,0,0,0,3.34,1.43S70.27,148.61,66.57,145.61Z"/><path class="cls-8" d="M73.13,144.32a.56.56,0,0,1-.24.53,5,5,0,0,1-3.75-1.51l.21-.37A4.87,4.87,0,0,0,73.13,144.32Z"/><path class="cls-4" d="M77.68,96.92s2.22-.08,3.07-3.37c0,0,5.56.47,5.56,4.81s-4.51,7.27-7.47,4.6c0,0,0-1.67-.11-2.38a10.09,10.09,0,0,1,3.14.8L81.41,97a4.87,4.87,0,0,1-3.21,1.3Z"/><path class="cls-4" d="M98.38,102.25c-1.56.1-2.67-.35-3.44-2.69S90,95.71,90,95.71c3.69-2.37,2.87-7.31,2.72-9.67S96,83,94.61,82.2s-2.48,1.72-3.42,2.9-2.44,1.61-4.43,2.73S84,93.22,84,93.22a6,6,0,0,1,1.89,9c.35.51,3.27,2.66,4.66,2.73s2.72-1.14,3.43-1.82,2.39-.08,3.46-.2S98.38,102.25,98.38,102.25ZM85.14,92.38c.19-5.67,6-5.83,6-5.83.2,6.83-3.75,8.89-3.75,8.89a15,15,0,0,0,3-8.09C86.68,87.56,85.14,92.38,85.14,92.38Zm7.49,8.38c-1.31-1.46-2.75-3.26-5-1.94,0,0-.48-1,.5-1.06A4.53,4.53,0,0,1,92,99c1.24,1.37,1.94,2.4,2.94,2.75C94.94,101.76,93.94,102.23,92.63,100.76Z"/><path class="cls-9" d="M62.94,96.29c.41,4.17-2.92,7.88-8.47,8.42s-11.19-2.3-11.6-6.46,3.76-8,9.3-8.53S62.54,92.12,62.94,96.29Z"/><path class="cls-9" d="M42,99.1a4.73,4.73,0,0,1-5.73,2s4.19,11.27,18.08,11.27a22,22,0,0,0,6.75-1.08s-3.27-4.83.91-6.89,6.28.77,6.6,1.6A11.65,11.65,0,0,0,71,101.54s-4,1-7.13-4.21A8.87,8.87,0,0,1,57.63,105C51.61,107.11,44.59,104.59,42,99.1Z"/><path class="cls-4" d="M64.7,109.6a13.83,13.83,0,0,1-2.87,1.3s-3-3,.31-5.74Z"/><path class="cls-4" d="M65.36,109.18l-2.73-4.27s4.43-2,5.24,2A9.63,9.63,0,0,1,65.36,109.18Z"/><path class="cls-10" d="M39.14,57.86a59.37,59.37,0,0,0-2.85,8.79c-.72,3.84-.37,5.7,1.16,5.72s3.12.1,3.33-1.82,1.34-13,4-16.35c0,0,.38-2.22,2.3-2.55,0,0-3.68,12.36-3.05,19.16a4.05,4.05,0,0,0,5,1.45s1.41,1.77,5.4,1.9,5.39-1.9,5.39-1.9a4.1,4.1,0,0,0,5-1.45s.69-5.63-3-19.16c0,0,1.59,0,2.31,2.55,0,0,1.73,2.17,2.61,7.06s1.28,8.6,1.47,9.52a2.14,2.14,0,0,0,2.25,1.64c1.15-.07,2.55.16,2.53-2.71s-1.83-8.89-3.22-11.88c0,0,4.35,3.51,5.46,14.58,0,0,1.27.52,1.27,1.31s-2.24,4.57-11.22,5.9c0,0-.45-2.65-2.57-3.38s-4.49.37-4.5,2.28c0,0,2.9-2.08,5,1.43a64,64,0,0,1-18-.1,11.14,11.14,0,0,1,2.86-1c1.4-.22,1.62-2.12-.14-2.23a5.51,5.51,0,0,0-5.36,2.79,21,21,0,0,1-8.26-3.23c-4-2.54-.66-3.8-.66-3.8S34.05,63.34,39.14,57.86Z"/><path class="cls-11" d="M38,71.74s-1.18.13-1.28-1.4c-.12-1.72.88-8.17,3.61-13.17a13.83,13.83,0,0,1,3.27-2.52A33.62,33.62,0,0,0,41,63.51c-.7,4.88-.63,8.1-2.08,8.25Z"/><path class="cls-12" d="M48.6,71.65s-1.78,1-3.9-1.06a41.07,41.07,0,0,1,.85-9.05c1-5.27,2.35-10,2.35-10l1.66-.31L49.44,62.4S46.88,67.51,48.6,71.65Z"/><path class="cls-10" d="M50.17,61.26a5.88,5.88,0,0,1,4.31-1.85,5.59,5.59,0,0,1,4.3,1.85l-.16-10.21a1.31,1.31,0,0,0-1.19-1.52l-.82.5.3,7.2a10.12,10.12,0,0,0-4.88,0l.31-7.2-.82-.5a1.3,1.3,0,0,0-1.19,1.35C50.31,52.16,50.17,61.26,50.17,61.26Z"/><path class="cls-10" d="M52.8,56.45a8.81,8.81,0,0,1,3.35,0l-.26-5.62a2.79,2.79,0,0,0-2.83,0Z"/><path class="cls-13" d="M59.51,62.4l-.13-11.18,1.67.31s3.41,12.1,3.19,19.06a3.46,3.46,0,0,1-3.9,1.06s.79-.86.56-3.87A16.72,16.72,0,0,0,59.51,62.4Z"/><path class="cls-10" d="M60.15,67.78s-.21-7.71-5.53-7.71S49,65.8,48.79,67.78c0,0,1.26-2.14,5.68-2.14S60.15,67.78,60.15,67.78Z"/><path class="cls-14" d="M52.64,66.47a3.13,3.13,0,0,0-1.37,2.61c0,1.79,1.68,2.45,3.06,2.45a3.2,3.2,0,0,0,3.14-2.85,2.38,2.38,0,0,0-1.16-2.21S60.15,67,60.15,70s-4.3,3.47-6.33,3.47-5-1.12-5-3.48S51.54,66.5,52.64,66.47Z"/><path class="cls-15" d="M56.68,68.39A2.37,2.37,0,1,1,54,66.67,2.26,2.26,0,0,1,56.68,68.39Z"/><path class="cls-16" d="M65.37,54.65a16.28,16.28,0,0,1,3.28,2.52c.1.2,3.63,8.2,3.63,11.86,0,0,.36,2.74-.73,2.73s-2.25.44-2.73-1.94S68.15,60.9,65.37,54.65Z"/><g class="cls-17"><path class="cls-18" d="M39.36,126.92c-.12.7-1.29,1.08-2.61.85s-2.28-1-2.16-1.69,1.29-1.09,2.61-.86S39.49,126.21,39.36,126.92Z"/><path class="cls-18" d="M36.48,133.88c-.37.61-1.72.47-3-.31s-2-1.92-1.67-2.53,1.72-.47,3,.31S36.86,133.27,36.48,133.88Z"/><path class="cls-18" d="M34,139.47c-.5.35-1.45-.17-2.13-1.14s-.82-2.05-.32-2.4,1.45.17,2.12,1.15S34.45,139.13,34,139.47Z"/><path class="cls-18" d="M31.3,123c-.6.45-2-.45-3.22-2s-1.64-3.2-1-3.65,2,.46,3.21,2S31.9,122.51,31.3,123Z"/><path class="cls-18" d="M68.52,127.08c.13.7,1.3,1.09,2.62.85s2.28-1,2.16-1.69-1.3-1.09-2.61-.86S68.4,126.37,68.52,127.08Z"/><path class="cls-18" d="M71.23,133.35c.37.61,1.72.47,3-.32s2-1.91,1.66-2.52-1.72-.47-3,.31S70.86,132.74,71.23,133.35Z"/><path class="cls-18" d="M73.93,139.64c.5.34,1.45-.17,2.13-1.15s.82-2.05.32-2.4-1.45.17-2.13,1.15S73.43,139.29,73.93,139.64Z"/><path class="cls-18" d="M76.59,123.12c.6.45,2-.45,3.21-2s1.64-3.2,1-3.65-2,.45-3.21,2S76,122.67,76.59,123.12Z"/></g><path class="cls-19" d="M58.83,93.73c0,.77-1.58,1.4-3.53,1.4s-3.54-.63-3.54-1.4,1.59-1.41,3.54-1.41S58.83,93,58.83,93.73Z"/><path class="cls-9" d="M48.34,81.2A67.42,67.42,0,0,0,59,81.3a6.93,6.93,0,0,0-1.45,4.6,8.45,8.45,0,0,0,.7,4A13,13,0,0,0,54,89a16.67,16.67,0,0,0-4.39.54A12.77,12.77,0,0,0,50,85.9,6.76,6.76,0,0,0,48.34,81.2Zm29,6.37c-1.06.05-2.52.82-2.24,5.4l-4.72.37-1-13.69-3.86.9s.44,3.47-.22,3.52-1.16-3.34-1.53-3.26c-.11,0-.94.15-2.29.29.91.74,1.47,2.48,1.47,5.32a7.35,7.35,0,0,1-1.7,5.21,8.88,8.88,0,0,1,2.7,4.12s1.81,4.56,6,4.94a7.19,7.19,0,0,0,4-.91.86.86,0,0,1,1-.07c.65.32,1.36.88.63.9a2.4,2.4,0,0,1-1.17-.25l-2.54,1.08s-3,11.67-17.51,11.67c-15.3,0-19.23-12.58-19.23-12.58l-.8-.84s-.11-.13-.45.25-1.27,1.74-1.65,1.46c0,0-.36-.15.23-.88s1.13-1.36,1.13-1.36a.56.56,0,0,1,.91-.12A5.77,5.77,0,0,0,38,100.57,4.91,4.91,0,0,0,41.75,98,10.14,10.14,0,0,1,46,91.14c-.49-.53-1.37-1.87-1.37-4.72,0-3,.92-4.76,1.84-5.43-.76-.1-1.53-.22-2.29-.36,0,0-1.82,2-2,3.48a4.37,4.37,0,0,1,.07-3.85s-2.73-.67-3.2-.82c0,0-1,11.48-1.32,13L33.9,90.6s.79-4.32-1.47-5-3.15,4.6-3,5.91A2.35,2.35,0,0,0,31,93.63a22.46,22.46,0,0,0-1.25,7.26c0,4,2.49,10.47,12.44,14.73s22.36,2.91,29.17-2.51,8.06-12.55,4.29-17.29c0,0,3.86,1.08,4.1-3.28S78.35,87.51,77.29,87.57Z"/><path class="cls-6" d="M78.78,113.66s9.68,2.73,12,16c0,0,5.19-7.56,4-15.83-.06-.33-1.87-6.35-4.36-8.15a10.57,10.57,0,0,1-5-2.9A3.9,3.9,0,0,1,82,104.68c-2.36,0-3.23-1-3.23-1l-.92,2.72Z"/><path class="cls-4" d="M74.88,120.16a8.42,8.42,0,0,1-3.08-3,2.23,2.23,0,0,0-2.8-1c-2.27.42-2.92,2.53-2.58,4.46a4.38,4.38,0,0,0,1.94,2.85c-1.15,1.18-4.88,2.15-5,2.17-3.86,1.06-2.77,4.94-2.77,4.94a5.38,5.38,0,0,0,.43.93A14.74,14.74,0,0,0,47.7,131c.74-2.83-2.27-4.06-4-4.65a9.12,9.12,0,0,1-2.92-1.69c2.31-1.5,3.44-5.33.86-7s-4.27.74-5.08,1.79a7.22,7.22,0,0,1-2.11,1.72c-.37-.28-.94-2.55-1.5-4.47a12.9,12.9,0,0,0-1.52-3.3l.6-4c7.92,9.79,23,9.67,23,9.67,17,0,21.86-11.21,21.86-11.21l.87,5.94C76.79,114.9,74.88,120.16,74.88,120.16Z"/><path class="cls-5" d="M62.58,124.76a.65.65,0,0,0,0-.13s0-.08,0-.11,0,0,0,0l0,0a1.52,1.52,0,0,0-.29-.39,2.55,2.55,0,0,0-.41-.3,2.34,2.34,0,0,0-.46-.19,1.67,1.67,0,0,0-.49-.05h-.06v.05h-.18a1.56,1.56,0,0,0-.45.09,1.41,1.41,0,0,0-.37.18,1.64,1.64,0,0,0-.28.23,1.46,1.46,0,0,0-.2.25,1.23,1.23,0,0,0-.17.4h0a.45.45,0,0,1-.07-.18.47.47,0,0,1,0-.17,1.73,1.73,0,0,0-.05-.24.53.53,0,0,0-.11-.24.8.8,0,0,0-.21-.15.77.77,0,0,0-.27-.08,1.23,1.23,0,0,0-.27,0,2,2,0,0,0-.46.09,3.82,3.82,0,0,0-.46.21,3.87,3.87,0,0,0-.43.27,4.1,4.1,0,0,0-.37.33,1,1,0,0,0-.14.19,1.71,1.71,0,0,0-.13.23.26.26,0,0,0,0,.08,5.8,5.8,0,0,1-.13-.6c0-.25-.09-.49-.13-.72s-.07-.43-.09-.6a2.54,2.54,0,0,0-.06-.37h0v0h0l-.18,0h-.11l-.08,0-.07,0-.1,0-.15,0a.86.86,0,0,0,0,.13v.2a4.32,4.32,0,0,0,.07.53q0,.3.12.63l.15.67c.05.23.1.43.16.62s.09.36.12.5.06.23.07.27a.06.06,0,0,1,.05,0s0,0,0,0,0,0,0,0h0s0,0,0,0a.12.12,0,0,1,.09,0l.09,0H56l0,0,.07,0,.11.07h.16l.09,0a.1.1,0,0,0,0-.08h0s0,0,0,0l0,0s0,0,0-.06a.23.23,0,0,1-.16-.11.79.79,0,0,1-.12-.26s0-.1,0-.15l.15.06a2.07,2.07,0,0,0,.46.1,3.3,3.3,0,0,0,.55,0,1.83,1.83,0,0,0,.4,0l.39-.1a1.62,1.62,0,0,0,.33-.13.91.91,0,0,0,.24-.16l.22.34c.08.12.15.24.22.37s.13.25.18.37a.83.83,0,0,1,.08.31.09.09,0,0,1-.06.09l-.24,0a5.1,5.1,0,0,1-1.58-.14c-.06,0-.1,0-.1-.06l0-.09a.49.49,0,0,1,.12-.15l.12-.09.09-.06v0h.06s0,0,0,0,0,0,0,0h0a.05.05,0,0,0,0,0l0,0a0,0,0,0,0,0,0,0,0,0,0,1,0,0h0l0,0h0v0l-.06,0h0l0,0-.29.11a1.25,1.25,0,0,0-.28.15l-.13.12a1.29,1.29,0,0,0-.16.17,1.22,1.22,0,0,0-.12.19.49.49,0,0,0,0,.18.2.2,0,0,0,.08.14.38.38,0,0,0,.22.07l.23,0,.33,0,.39,0,.42,0,.42,0c.14,0,.27,0,.39,0h.17l.15,0a.77.77,0,0,0,.24-.12,1.21,1.21,0,0,0,.24-.21,1.51,1.51,0,0,0,.18-.26.52.52,0,0,0,.06-.26.25.25,0,0,0,0-.07,1.85,1.85,0,0,0-.17-.42.41.41,0,0,0,0-.09l.27.11a2,2,0,0,0,.58.07,2.07,2.07,0,0,0,.41-.07,2.86,2.86,0,0,0,.41-.15,2.5,2.5,0,0,0,.39-.23,1.56,1.56,0,0,0,.33-.29,1.31,1.31,0,0,0,.22-.32.94.94,0,0,0,.07-.37A.74.74,0,0,0,62.58,124.76Zm-4.28-.29s-.06,0-.06,0h0s0,0,0,0,0,0,0,0,0,0,0,0,0,0,0,0h0l-.07.09s0,0,.05,0l0,.05a.43.43,0,0,1,0,0v0a.53.53,0,0,1,0,.18.46.46,0,0,1-.09.15.57.57,0,0,1-.16.14l-.28.14a.73.73,0,0,1-.21.06l-.22,0a1.17,1.17,0,0,1-.38,0,.27.27,0,0,1-.18-.21.46.46,0,0,1,.06-.25,1.34,1.34,0,0,1,.17-.27,2.77,2.77,0,0,1,.24-.25,2.64,2.64,0,0,1,.29-.21,1.82,1.82,0,0,1,.27-.15.6.6,0,0,1,.24-.06.34.34,0,0,1,.2,0,.2.2,0,0,1,.11.16A.35.35,0,0,1,58.3,124.47Zm3.33.75a1,1,0,0,1-.1.27.82.82,0,0,1-.2.22.68.68,0,0,1-.33.1l-.31,0a.82.82,0,0,1-.36-.13,1,1,0,0,1-.25-.24,1,1,0,0,1-.14-.3,1.8,1.8,0,0,1-.06-.32.94.94,0,0,1,.13-.59.47.47,0,0,1,.37-.22h.11l.08.05.06.06,0,0h0l.12.07a.11.11,0,0,1,.08,0h0a.08.08,0,0,0,.07,0,.29.29,0,0,1,.22.12.69.69,0,0,0,.13.11.44.44,0,0,1,.15.1.83.83,0,0,1,.12.17,1,1,0,0,1,.07.35C61.65,125,61.64,125.12,61.63,125.22Zm-6.54.32a2.78,2.78,0,0,1-.12-.38c0-.12-.07-.25-.11-.38s-.06-.25-.1-.38l.06-.09v0s0,0,0,0a.1.1,0,0,1,0,0,.19.19,0,0,1,0-.09.43.43,0,0,0,0-.05L54.6,124a1.09,1.09,0,0,0-.26,0l0,0h0a.32.32,0,0,0-.16,0L54,124a.2.2,0,0,1,0,.07,3.42,3.42,0,0,0-.58.14c-.21.07-.44.15-.66.24a4.53,4.53,0,0,0-.61.34,1.71,1.71,0,0,0-.37.33c0-.14-.09-.28-.13-.43s-.09-.32-.14-.48-.08-.31-.12-.44-.07-.27-.11-.38a1.29,1.29,0,0,0-.12-.26l-.07-.06,0,0v0h0s0,0,0,0a0,0,0,0,0,0,0H51a.2.2,0,0,0,0,.08h0s0,0,0,0h0a.13.13,0,0,0,0,0l0,0h0l0,0,0,0v0l-.07,0-.07.05v0c-.08,0-.12,0-.13.09a.74.74,0,0,0,0,.15,1,1,0,0,0,0,.16s0,.1,0,.14,0,0,0,0a.13.13,0,0,1,0,.07l0,0a1.07,1.07,0,0,1,.06.17,1.8,1.8,0,0,0,.08.21h-.35a.85.85,0,0,0-.23,0l-.22.06-.25.12-.28.17a.8.8,0,0,0-.21.2,1.26,1.26,0,0,0-.14.26,2.81,2.81,0,0,0-.08.31c0,.11,0,.22,0,.33a2.14,2.14,0,0,0,.07.43,1.91,1.91,0,0,0,.18.38,1.28,1.28,0,0,0,.29.28.81.81,0,0,0,.39.1,4.09,4.09,0,0,0,.55-.13,1.79,1.79,0,0,0,.39-.21,1.15,1.15,0,0,0,.28-.3,3.49,3.49,0,0,0,.24-.44l.07.17a1.8,1.8,0,0,0,.08.21c0,.07.05.14.08.2a1.62,1.62,0,0,0,.06.17h.06a.09.09,0,0,1,.07,0h.09a.34.34,0,0,0,.17-.07l.07.06a.92.92,0,0,0,.54.13,1.59,1.59,0,0,0,.36-.06,2.14,2.14,0,0,0,.35-.16,1.72,1.72,0,0,0,.33-.24,1.77,1.77,0,0,0,.3-.31h0s0-.05.06-.1a1.42,1.42,0,0,1,.12-.13l.12-.13.07,0,0,0h0a.56.56,0,0,1,0,.08.36.36,0,0,1,0,.09l0,.08,0,0a.29.29,0,0,1,0,.1l0,.1,0,.1a.61.61,0,0,0,0,.12v0l.1,0,.12,0v0h.06v-.07l.08,0,.08,0,.1-.07.12-.12s.06-.07,0-.09v0A2.26,2.26,0,0,1,55.09,125.54Zm-4.43-.05a2.64,2.64,0,0,1-.12.4,3,3,0,0,1-.18.32c-.07.09-.14.14-.2.14a.19.19,0,0,1-.15-.08.77.77,0,0,1-.16-.19,1.76,1.76,0,0,1-.14-.23,2,2,0,0,1-.09-.26,1.11,1.11,0,0,1,0-.25.81.81,0,0,1,.07-.35.41.41,0,0,1,.26-.22v0a.83.83,0,0,1,.36-.13.43.43,0,0,1,.3.11.51.51,0,0,1,.15.39A1.82,1.82,0,0,1,50.66,125.49Zm3.09-.36a1.55,1.55,0,0,1-.2.32,2.66,2.66,0,0,1-.26.31A1.23,1.23,0,0,1,53,126a.26.26,0,0,0-.09,0l-.08,0h0c-.36-.17-.54-.34-.55-.51a.38.38,0,0,1,.06-.23.65.65,0,0,1,.16-.21l.25-.18.29-.14.3-.09a1.55,1.55,0,0,1,.29,0h.11l.09,0a.25.25,0,0,1,0,.09.27.27,0,0,0,0,.09.14.14,0,0,1,0,.07A.45.45,0,0,1,53.75,125.13Zm-4.9,1.41a.41.41,0,0,1,0,.15s0,0,0,0,0,0,0,0a.47.47,0,0,0-.15,0s0,0,0,0h0s0,0,0,0l0,0s0,0-.06,0l0,0,0,0h0v0h0s0,0,.06.06h-.15a4.51,4.51,0,0,1-.28-.52c-.07-.16-.12-.31-.17-.44s0-.11,0-.19a1.55,1.55,0,0,1-.05-.23,2.51,2.51,0,0,1,0-.27c0-.09,0-.18,0-.26a1.15,1.15,0,0,1,0-.3c0-.07,0-.1.07-.1l0,0a.08.08,0,0,1,0,0h.06a.06.06,0,0,1,0-.06h.09a.67.67,0,0,1,.25,0,.2.2,0,0,1,.15.14.78.78,0,0,1,0,.09,1.41,1.41,0,0,0,0,.18,2.32,2.32,0,0,0,0,.24l0,.25a1.8,1.8,0,0,1,0,.22,1.57,1.57,0,0,0,0,.16c0,.1,0,.21.08.32l.1.3C48.8,126.38,48.83,126.46,48.85,126.54Zm-3.73-6.06h0v0l0,0,0,0c0,.11.09.22.13.33s.09.23.14.35a4.72,4.72,0,0,1,.17.54c0,.17.08.34.11.51s.05.33.08.5.06.34.11.53H46a0,0,0,0,0,0,0,0,0,0,0,0,0,0,.15.15,0,0,0,.06,0l0,0h.17a.08.08,0,0,1,0,0l.05,0,.06,0h.06a.63.63,0,0,0,0-.16,2,2,0,0,0,0-.22l0-.23a1.85,1.85,0,0,1,0-.23,1.5,1.5,0,0,1,0-.2h.14a3.61,3.61,0,0,0,.57-.15,1.31,1.31,0,0,0,.44-.26c.06,0,.1-.12.15-.17h0A.79.79,0,0,0,48,122a.8.8,0,0,0,.43.13,1,1,0,0,0,.28,0A1.08,1.08,0,0,0,49,122a1.17,1.17,0,0,0,.28-.17,2,2,0,0,0,.26-.24h0l.06-.07.1-.11.1-.09.06,0h0l0,.06a.25.25,0,0,1,0,.07l0,.07a.05.05,0,0,0,0,0,.24.24,0,0,1,0,.08.22.22,0,0,1,0,.08s0,0,0,.09a.36.36,0,0,0,0,.09v0l.08,0,.09,0v0h0v-.06h.06a.11.11,0,0,0,.07,0,.25.25,0,0,0,.08,0l.06-.06a.47.47,0,0,0,.06.09,1,1,0,0,0,.22.16,1.3,1.3,0,0,0,.35.12,2.14,2.14,0,0,0,.48,0H52a2.5,2.5,0,0,0,.38-.06,1.52,1.52,0,0,0,.36-.12,1,1,0,0,0,.21-.14.34.34,0,0,1,0,.09h.13l.28,0,.29,0a3.65,3.65,0,0,1,.06-.49l.06-.5s0,0,0-.08l0-.09a.3.3,0,0,0,0-.08.09.09,0,0,1,.06,0l.07,0a.81.81,0,0,1,.08.12.69.69,0,0,1,.07.13,2.51,2.51,0,0,1,.11.23c0,.09.09.18.13.27l.14.28a2.11,2.11,0,0,0,.14.22.49.49,0,0,0,.12.15s0,0,0,0h.07l.11,0h.24a.15.15,0,0,0,.08,0s0,0,0,0h0l0-.11a.47.47,0,0,1,0-.1.25.25,0,0,1,0-.07.87.87,0,0,0,.27.14,1.26,1.26,0,0,0,.33,0H56l.29-.06a1.23,1.23,0,0,0,.29-.09,1.38,1.38,0,0,0,.24-.14.67.67,0,0,0,.09-.14,0,0,0,0,0,0,0,.68.68,0,0,0,.13.18.8.8,0,0,0,.22.17,1.35,1.35,0,0,0,.34.12,2.31,2.31,0,0,0,.49.05l.37,0a1.73,1.73,0,0,0,.38,0c.09,0,.18-.06.27-.09s0,0,0,0a.73.73,0,0,0,.43.13,1,1,0,0,0,.28,0,1.31,1.31,0,0,0,.29-.11,1.34,1.34,0,0,0,.27-.17,2,2,0,0,0,.26-.24h0l.06-.07.1-.11.1-.09.05,0h0a.21.21,0,0,1,0,.06l0,.07a.64.64,0,0,0,0,.07.05.05,0,0,0,0,0,.24.24,0,0,1,0,.08s0,.06,0,.08a.29.29,0,0,0,0,.09.16.16,0,0,0,0,.09v0l.08,0,.09,0v0h0v-.06h.07l.06,0,.08-.06.1-.09a.1.1,0,0,0,0-.07v0a1.48,1.48,0,0,1-.12-.29l-.09-.3-.06-.31-.06-.31,0-.06v-.06l0,0s0,0,0-.06v0l-.17-.07-.21,0s0,0,0,0h0l-.12,0c-.05,0-.07,0-.07,0l0,.05-.46.09a3.74,3.74,0,0,0-.54.17,2.88,2.88,0,0,0-.5.24,1.15,1.15,0,0,0-.37.31.9.9,0,0,0-.15.23.53.53,0,0,0-.05.2,1.12,1.12,0,0,0,.05.27c0,.05,0,.09.07.13h0l-.2,0-.2,0h-.21a.71.71,0,0,1-.21,0,.49.49,0,0,1-.18-.08.4.4,0,0,1-.14-.15h0a.81.81,0,0,1-.11-.2.45.45,0,0,1,0-.37.67.67,0,0,1,.11-.18,1,1,0,0,1,.13-.16l.14-.16a.12.12,0,0,1,.09,0h.06s0,0,0,0a.51.51,0,0,0,.43.24l0,0,0,0a.25.25,0,0,0,.15,0,.29.29,0,0,0,.18-.08s0,0,0,0a.43.43,0,0,1,0,0h0a.4.4,0,0,0-.14-.22.87.87,0,0,0-.23-.16l-.26-.08-.2,0a.59.59,0,0,0-.23,0l-.21.09-.19.11-.15.1a.7.7,0,0,0-.2.15,1.83,1.83,0,0,0-.13.16s0,0,0-.06a1.37,1.37,0,0,0,0-.19.53.53,0,0,0,0-.17.23.23,0,0,0-.08-.11.25.25,0,0,0-.16-.05l-.19,0v0l0,0v.11l-.07,0h-.08a.19.19,0,0,1-.07.08l-.07,0v.12l0,0,0,0a.75.75,0,0,1,.08.24,1,1,0,0,1,0,.23,1.26,1.26,0,0,1,0,.28,1,1,0,0,1-.1.21.47.47,0,0,1-.14.14.23.23,0,0,1-.15,0,.27.27,0,0,1-.18-.07.83.83,0,0,1-.15-.22,2.37,2.37,0,0,1-.11-.41,5,5,0,0,1,0-.6c0-.12,0-.24,0-.38h-.14l-.06,0a.09.09,0,0,0,0,0h-.09s0,0,0,0,0,0,0,.05l-.05,0,0,0a4.48,4.48,0,0,0-.12.46,1.88,1.88,0,0,0-.05.33l-.15-.38a1.82,1.82,0,0,0-.23-.39.18.18,0,0,0-.08-.06l-.11,0-.11,0a.15.15,0,0,1-.08,0h-.42l-.06,0,0,0-.06,0-.11.23a.86.86,0,0,0-.06.23h-.09s0-.1,0-.18l0-.27c0-.1,0-.2,0-.31s0-.2,0-.29,0-.18,0-.25,0-.11,0-.14a.29.29,0,0,0-.21-.08.6.6,0,0,0-.22,0,0,0,0,0,0,0,0s0,0,0,0h-.09c0,.1,0,.2,0,.32s0,.26,0,.4,0,.28,0,.42l.06.43c0,.14,0,.27.07.39a2,2,0,0,0,.08.31s0,0,0,.06l0,.13h-.13a0,0,0,0,1,0,0v0h0a0,0,0,0,0,0,0l-.14.08-.17.07-.2,0a.68.68,0,0,1-.2,0H51.8l-.21,0a.56.56,0,0,1-.18-.07.44.44,0,0,1-.14-.16h0a.81.81,0,0,1-.11-.2.57.57,0,0,1,0-.18.41.41,0,0,1,0-.19.76.76,0,0,1,.09-.18l.14-.16a1.07,1.07,0,0,0,.14-.16.12.12,0,0,1,.09,0h.06s0,0,0,0a.53.53,0,0,0,.43.25l0,0a.08.08,0,0,0,0,0,.25.25,0,0,0,.15,0,.27.27,0,0,0,.18-.07s0,0,0,0v0h0a.5.5,0,0,0-.13-.22,1.2,1.2,0,0,0-.24-.15,1.34,1.34,0,0,0-.26-.09.83.83,0,0,0-.2,0,.62.62,0,0,0-.23,0,1,1,0,0,0-.21.09l-.19.11-.15.09a1.3,1.3,0,0,0-.2.15l-.18.22c0,.08-.09.17-.13.25v0a.14.14,0,0,0,0-.07l-.06-.31c0-.1,0-.2-.07-.31l.06-.07v0a0,0,0,0,1,0,0l0,0a.11.11,0,0,1,0-.07.43.43,0,0,0,0,0l-.18-.06-.21,0s0,0,0,0h0a.29.29,0,0,0-.12,0c-.05,0-.07,0-.08,0a.11.11,0,0,1,0,0l-.46.09a5.52,5.52,0,0,0-.54.16,2.92,2.92,0,0,0-.5.25l-.06,0a.57.57,0,0,0,0-.13.78.78,0,0,0,0-.31.58.58,0,0,0-.15-.25h-.07a0,0,0,0,1,0,0h0a1.9,1.9,0,0,0-.45-.07,1.14,1.14,0,0,0-.46.09,1.63,1.63,0,0,0-.35.23,1.81,1.81,0,0,0-.28.33l-.24.36a1.16,1.16,0,0,0-.06-.15l0-.12a.32.32,0,0,1,0-.09.36.36,0,0,1,0-.09,1.17,1.17,0,0,1,0-.11l-.07-.14h-.33l0,0h-.06v.06a.39.39,0,0,0-.14,0l-.11,0,0,.16h0Zm14.31.55a.56.56,0,0,1,.15-.16.77.77,0,0,1,.2-.13l.23-.1.25-.06.23,0h.08l.08,0s0,0,0,.07a.15.15,0,0,0,0,.07s0,0,0,0a.5.5,0,0,1-.07.19,1.44,1.44,0,0,1-.18.25,1.2,1.2,0,0,1-.22.23.62.62,0,0,1-.22.14l-.07,0-.06,0h0c-.27-.15-.41-.3-.41-.43A.41.41,0,0,1,59.43,121Zm-11.14,0a.7.7,0,0,1,.14-.16,1.07,1.07,0,0,1,.21-.13l.23-.1.25-.06.22,0h.09l.07,0a.22.22,0,0,1,0,.08v.07a.08.08,0,0,1,0,0,.5.5,0,0,1-.07.19,1.44,1.44,0,0,1-.18.25,1.61,1.61,0,0,1-.22.23.62.62,0,0,1-.22.14l-.07,0-.07,0h0c-.27-.15-.41-.3-.41-.43A.37.37,0,0,1,48.29,121Zm-1.81.28h0l0-.06h0a3.21,3.21,0,0,1,.22-.57,1.72,1.72,0,0,1,.39-.48l.05-.05h.06a.13.13,0,0,1,.08,0,.47.47,0,0,1,.22.22.78.78,0,0,1,.06.31,1.24,1.24,0,0,1-.06.37,1.62,1.62,0,0,1-.17.35,1.77,1.77,0,0,1-.12.17l-.16.15a.76.76,0,0,1-.16.11.27.27,0,0,1-.14,0h0l-.13,0-.07-.09a.38.38,0,0,1,0-.1.34.34,0,0,1,0-.09s0-.12,0-.2,0,0,0,0h.06Zm1.59,2.31v0a.25.25,0,0,1,.15-.07.11.11,0,0,1,.1.08.44.44,0,0,0,.06.19s0,0,0,.06a1,1,0,0,1-.52.18.23.23,0,0,1-.2,0,.19.19,0,0,1-.07-.17v-.08a1.15,1.15,0,0,1,0-.14l.16,0,.17,0H48s0,0,0,0a.05.05,0,0,1,0,0s0,0,0,0S48.07,123.6,48.07,123.61Zm.23,3.17a.93.93,0,0,1,0,.13h0s0,0-.09,0l-.16,0h-.28l-.09,0s0,0,0,0a.53.53,0,0,1-.16-.17l-.19-.28-.19-.34-.18-.33-.15-.27a1.27,1.27,0,0,0-.11-.17.37.37,0,0,0-.11-.13.12.12,0,0,0-.08,0,.1.1,0,0,0-.07,0,.47.47,0,0,0,0,.1l0,.12a.34.34,0,0,0,0,.09c0,.22,0,.43,0,.63s0,.41,0,.63a2.17,2.17,0,0,1-.36,0h-.51a.49.49,0,0,0,0-.12,1.33,1.33,0,0,0,0-.19,1.05,1.05,0,0,0-.05-.19l0-.08a1.89,1.89,0,0,1-.12-.38c0-.15-.08-.31-.11-.49s-.07-.35-.1-.53l-.09-.53c0-.17-.05-.34-.07-.49s0-.28-.06-.4h.11s0,0,0,0,0,0,0,0l.27-.06a.36.36,0,0,1,.27.08,1.06,1.06,0,0,1,0,.18c0,.09,0,.19,0,.31s0,.24,0,.36,0,.26.05.39a2.88,2.88,0,0,0,0,.33,2.07,2.07,0,0,0,0,.23h.11a.81.81,0,0,1,.06-.31l.12-.29a.15.15,0,0,0,.08,0,.1.1,0,0,1,.05,0l.07,0,.13,0h.37s0,0,0,0a.22.22,0,0,0,.1,0l.14,0,.14,0a.14.14,0,0,1,.1.06,2.55,2.55,0,0,1,.31.47c.09.18.18.36.26.54s.16.37.25.55a2.14,2.14,0,0,0,.3.51A.75.75,0,0,0,48.3,126.78Z"/><path class="cls-20" d="M39.72,97c0,.55-1.06,1-2.37,1S35,97.56,35,97s1.06-1,2.37-1S39.72,96.47,39.72,97Z"/><path class="cls-21" d="M72.24,96.72c0,.55-1.06,1-2.37,1s-2.37-.44-2.37-1,1.06-1,2.37-1S72.24,96.17,72.24,96.72Z"/><path class="cls-5" d="M48.8,82.42c0,.86-.48,1.56-1.08,1.56s-1.07-.7-1.07-1.56.48-1.57,1.07-1.57S48.8,81.55,48.8,82.42Z"/><path class="cls-5" d="M48.79,86.73c0,.58-.29,1.06-.64,1.06s-.64-.48-.64-1.06.29-1.07.64-1.07S48.79,86.14,48.79,86.73Z"/><path class="cls-5" d="M61.79,82.08c0,.86-.48,1.57-1.08,1.57s-1.07-.71-1.07-1.57.48-1.57,1.07-1.57S61.79,81.21,61.79,82.08Z"/><path class="cls-5" d="M61.78,86.39c0,.59-.29,1.06-.64,1.06s-.64-.47-.64-1.06.29-1.07.64-1.07S61.78,85.8,61.78,86.39Z"/><path class="cls-8" d="M67.93,143.63s-1.52-.51-2.17,1.55c0,0-2.82-.45-3.86,1.93a3.73,3.73,0,0,0-3.09,1.19,3.34,3.34,0,0,0-3.52.89,3.36,3.36,0,0,0-3.88-.37s-1.09-1.7-4-.28a3.18,3.18,0,0,0-2.8-.81,2.5,2.5,0,0,0-3.64-.79,2.32,2.32,0,0,0-2.64-1.46,6.25,6.25,0,0,0-1.14-1.58,2.78,2.78,0,0,0,1.2-4.12c2,.85,3.58.48,5.24-1.42s-.38-4-.38-4a4.17,4.17,0,0,0,4-2.23c9.88-4.46,16.22,2.33,16.22,2.33a2.91,2.91,0,0,0,.26,2.71,3.8,3.8,0,0,0,4.69,2l.19.2a2.41,2.41,0,0,0,.05,2.92A10.4,10.4,0,0,0,67.93,143.63Z"/><path class="cls-22" d="M57.47,134.69c0,.84-2,1.52-4.46,1.52s-4.45-.68-4.45-1.52,2-1.53,4.45-1.53S57.47,133.84,57.47,134.69Z"/><path class="cls-5" d="M91.67,43.74a2.8,2.8,0,1,0,2.8,2.79A2.79,2.79,0,0,0,91.67,43.74Zm0,5.15A2.36,2.36,0,1,1,94,46.53,2.36,2.36,0,0,1,91.67,48.89Zm.7-2a1,1,0,0,0-.29-.22.83.83,0,0,0,.53-.25.68.68,0,0,0,.17-.49.85.85,0,0,0-.11-.42.69.69,0,0,0-.31-.25,1.87,1.87,0,0,0-.62-.07H90.61v2.64h.54v-1.1h.11a.87.87,0,0,1,.27,0,.42.42,0,0,1,.16.11,4.74,4.74,0,0,1,.29.39l.38.57H93l-.33-.51A2.14,2.14,0,0,0,92.37,46.91Zm-.82-.58h-.4v-.67H92a.26.26,0,0,1,.2.1.29.29,0,0,1,.07.22.35.35,0,0,1,0,.2.58.58,0,0,1-.15.11A2.16,2.16,0,0,1,91.55,46.33Z"/></g></g></svg>